<mxfile host="Electron" modified="2023-06-16T21:03:21.193Z" agent="Mozilla/5.0 (Windows NT 10.0; Win64; x64) AppleWebKit/537.36 (KHTML, like Gecko) draw.io/21.2.8 Chrome/112.0.5615.165 Electron/24.2.0 Safari/537.36" etag="RNeDtnBdn51i3WnyQh9H" version="21.2.8" type="device">
  <diagram name="Seite-1" id="b_7gPE0R1xgrwfaMVDuy">
    <mxGraphModel dx="2074" dy="1244" grid="1" gridSize="10" guides="1" tooltips="1" connect="1" arrows="1" fold="1" page="1" pageScale="1" pageWidth="1169" pageHeight="827" math="0" shadow="0">
      <root>
        <mxCell id="0" />
        <mxCell id="1" parent="0" />
        <mxCell id="yfwq8j_R4H9Uj4RuLaGY-23" value="optional" style="rounded=0;whiteSpace=wrap;html=1;verticalAlign=bottom;" parent="1" vertex="1">
          <mxGeometry x="2080" y="60" width="140" height="180" as="geometry" />
        </mxCell>
        <mxCell id="yfwq8j_R4H9Uj4RuLaGY-17" value="" style="rounded=0;whiteSpace=wrap;html=1;fillColor=none;" parent="1" vertex="1">
          <mxGeometry x="1220" y="20" width="350" height="200" as="geometry" />
        </mxCell>
        <mxCell id="yfwq8j_R4H9Uj4RuLaGY-10" value="Application containerized" style="rounded=0;whiteSpace=wrap;html=1;fillColor=none;verticalAlign=bottom;" parent="1" vertex="1">
          <mxGeometry x="50" y="200" width="570" height="160" as="geometry" />
        </mxCell>
        <mxCell id="yfwq8j_R4H9Uj4RuLaGY-1" value="Actor" style="shape=umlActor;verticalLabelPosition=bottom;verticalAlign=top;html=1;outlineConnect=0;" parent="1" vertex="1">
          <mxGeometry x="60" y="40" width="30" height="60" as="geometry" />
        </mxCell>
        <mxCell id="yfwq8j_R4H9Uj4RuLaGY-2" value="Browser" style="rounded=0;whiteSpace=wrap;html=1;" parent="1" vertex="1">
          <mxGeometry x="105" y="40" width="125" height="90" as="geometry" />
        </mxCell>
        <mxCell id="yfwq8j_R4H9Uj4RuLaGY-4" style="edgeStyle=orthogonalEdgeStyle;rounded=0;orthogonalLoop=1;jettySize=auto;html=1;" parent="1" source="yfwq8j_R4H9Uj4RuLaGY-3" target="yfwq8j_R4H9Uj4RuLaGY-2" edge="1">
          <mxGeometry relative="1" as="geometry" />
        </mxCell>
        <mxCell id="yfwq8j_R4H9Uj4RuLaGY-7" style="edgeStyle=orthogonalEdgeStyle;rounded=0;orthogonalLoop=1;jettySize=auto;html=1;startArrow=classic;startFill=1;" parent="1" source="yfwq8j_R4H9Uj4RuLaGY-3" target="yfwq8j_R4H9Uj4RuLaGY-11" edge="1">
          <mxGeometry relative="1" as="geometry" />
        </mxCell>
        <mxCell id="yfwq8j_R4H9Uj4RuLaGY-3" value="Website/Frontend" style="rounded=0;whiteSpace=wrap;html=1;" parent="1" vertex="1">
          <mxGeometry x="107.5" y="230" width="120" height="60" as="geometry" />
        </mxCell>
        <mxCell id="yfwq8j_R4H9Uj4RuLaGY-5" value="Python Backend" style="rounded=0;whiteSpace=wrap;html=1;" parent="1" vertex="1">
          <mxGeometry x="410" y="220" width="140" height="80" as="geometry" />
        </mxCell>
        <mxCell id="yfwq8j_R4H9Uj4RuLaGY-8" value="OpenAI/GPT" style="rounded=0;whiteSpace=wrap;html=1;" parent="1" vertex="1">
          <mxGeometry x="410" y="45" width="140" height="80" as="geometry" />
        </mxCell>
        <mxCell id="yfwq8j_R4H9Uj4RuLaGY-9" style="edgeStyle=orthogonalEdgeStyle;rounded=0;orthogonalLoop=1;jettySize=auto;html=1;startArrow=classic;startFill=1;" parent="1" source="yfwq8j_R4H9Uj4RuLaGY-8" target="yfwq8j_R4H9Uj4RuLaGY-5" edge="1">
          <mxGeometry relative="1" as="geometry">
            <mxPoint x="238" y="270" as="sourcePoint" />
            <mxPoint x="400" y="270" as="targetPoint" />
          </mxGeometry>
        </mxCell>
        <mxCell id="yfwq8j_R4H9Uj4RuLaGY-11" value="Flask Webserver" style="rounded=0;whiteSpace=wrap;html=1;" parent="1" vertex="1">
          <mxGeometry x="340" y="235" width="80" height="50" as="geometry" />
        </mxCell>
        <mxCell id="yfwq8j_R4H9Uj4RuLaGY-12" value="Persona" style="rounded=0;whiteSpace=wrap;html=1;" parent="1" vertex="1">
          <mxGeometry x="1260" y="40" width="140" height="80" as="geometry" />
        </mxCell>
        <mxCell id="yfwq8j_R4H9Uj4RuLaGY-13" value="AI Guest (GPT)" style="rounded=0;whiteSpace=wrap;html=1;" parent="1" vertex="1">
          <mxGeometry x="1325" y="350" width="140" height="80" as="geometry" />
        </mxCell>
        <mxCell id="yfwq8j_R4H9Uj4RuLaGY-14" value="Persona" style="rounded=0;whiteSpace=wrap;html=1;" parent="1" vertex="1">
          <mxGeometry x="1290" y="50" width="140" height="80" as="geometry" />
        </mxCell>
        <mxCell id="yfwq8j_R4H9Uj4RuLaGY-15" value="Persona" style="rounded=0;whiteSpace=wrap;html=1;" parent="1" vertex="1">
          <mxGeometry x="1330" y="70" width="140" height="80" as="geometry" />
        </mxCell>
        <mxCell id="yfwq8j_R4H9Uj4RuLaGY-16" value="Persona" style="rounded=0;whiteSpace=wrap;html=1;" parent="1" vertex="1">
          <mxGeometry x="1380" y="90" width="140" height="80" as="geometry" />
        </mxCell>
        <mxCell id="yfwq8j_R4H9Uj4RuLaGY-18" value="random selection" style="edgeStyle=orthogonalEdgeStyle;rounded=0;orthogonalLoop=1;jettySize=auto;html=1;" parent="1" source="yfwq8j_R4H9Uj4RuLaGY-17" target="yfwq8j_R4H9Uj4RuLaGY-13" edge="1">
          <mxGeometry relative="1" as="geometry" />
        </mxCell>
        <mxCell id="yfwq8j_R4H9Uj4RuLaGY-19" value="Persona" style="rounded=0;whiteSpace=wrap;html=1;verticalAlign=bottom;" parent="1" vertex="1">
          <mxGeometry x="1720" y="60" width="360" height="210" as="geometry" />
        </mxCell>
        <mxCell id="yfwq8j_R4H9Uj4RuLaGY-20" value="mood" style="rounded=0;whiteSpace=wrap;html=1;" parent="1" vertex="1">
          <mxGeometry x="1740" y="85" width="76" height="40" as="geometry" />
        </mxCell>
        <mxCell id="yfwq8j_R4H9Uj4RuLaGY-21" value="experience/&lt;br&gt;event" style="rounded=0;whiteSpace=wrap;html=1;" parent="1" vertex="1">
          <mxGeometry x="1820" y="85" width="76" height="40" as="geometry" />
        </mxCell>
        <mxCell id="yfwq8j_R4H9Uj4RuLaGY-22" value="imitation" style="rounded=0;whiteSpace=wrap;html=1;" parent="1" vertex="1">
          <mxGeometry x="2112" y="80" width="76" height="40" as="geometry" />
        </mxCell>
        <mxCell id="yfwq8j_R4H9Uj4RuLaGY-24" value="plan" style="rounded=0;whiteSpace=wrap;html=1;" parent="1" vertex="1">
          <mxGeometry x="1900" y="85" width="76" height="40" as="geometry" />
        </mxCell>
        <mxCell id="yfwq8j_R4H9Uj4RuLaGY-25" value="out strategy" style="rounded=0;whiteSpace=wrap;html=1;" parent="1" vertex="1">
          <mxGeometry x="1990" y="170" width="76" height="40" as="geometry" />
        </mxCell>
      </root>
    </mxGraphModel>
  </diagram>
</mxfile>
